<?xml version="1.0" encoding="UTF-8" standalone="no"?>
<!-- Created with Inkscape (http://www.inkscape.org/) -->

<svg
   xmlns:dc="http://purl.org/dc/elements/1.1/"
   xmlns:cc="http://creativecommons.org/ns#"
   xmlns:rdf="http://www.w3.org/1999/02/22-rdf-syntax-ns#"
   xmlns:svg="http://www.w3.org/2000/svg"
   xmlns="http://www.w3.org/2000/svg"
   xmlns:sodipodi="http://sodipodi.sourceforge.net/DTD/sodipodi-0.dtd"
   xmlns:inkscape="http://www.inkscape.org/namespaces/inkscape"
   width="744.09448819"
   height="1052.3622047"
   id="svg2"
   version="1.1"
   inkscape:version="0.48.1 r9760"
   sodipodi:docname="vault.svg">
  <defs
     id="defs4">
    <filter
       inkscape:collect="always"
       id="filter3773">
      <feGaussianBlur
         inkscape:collect="always"
         stdDeviation="4.1871922"
         id="feGaussianBlur3775" />
    </filter>
  </defs>
  <sodipodi:namedview
     id="base"
     pagecolor="#5c5c5c"
     bordercolor="#666666"
     borderopacity="1.0"
     inkscape:pageopacity="0"
     inkscape:pageshadow="2"
     inkscape:zoom="0.7"
     inkscape:cx="372.82364"
     inkscape:cy="555.6597"
     inkscape:document-units="px"
     inkscape:current-layer="layer4"
     showgrid="false"
     inkscape:window-width="1280"
     inkscape:window-height="939"
     inkscape:window-x="0"
     inkscape:window-y="30"
     inkscape:window-maximized="1" />
  <metadata
     id="metadata7">
    <rdf:RDF>
      <cc:Work
         rdf:about="">
        <dc:format>image/svg+xml</dc:format>
        <dc:type
           rdf:resource="http://purl.org/dc/dcmitype/StillImage" />
        <dc:title></dc:title>
      </cc:Work>
    </rdf:RDF>
  </metadata>
  <g
     inkscape:groupmode="layer"
     id="layer2"
     inkscape:label="Shadow"
     style="display:inline">
    <path
       d="m 494.28572,496.64789 a 121.42857,121.42857 0 1 1 -242.85715,0 121.42857,121.42857 0 1 1 242.85715,0 z"
       sodipodi:ry="121.42857"
       sodipodi:rx="121.42857"
       sodipodi:cy="496.64789"
       sodipodi:cx="372.85715"
       id="path3759"
       style="fill:#000000;fill-opacity:1;stroke:none;filter:url(#filter3773)"
       sodipodi:type="arc"
       transform="matrix(1.0823529,0,0,1.0823529,-30.705882,-40.900414)" />
  </g>
  <g
     inkscape:label="Circle"
     inkscape:groupmode="layer"
     id="layer1"
     style="display:inline">
    <path
       sodipodi:type="arc"
       style="fill:#9b0a00;fill-opacity:1;stroke:none;stroke-width:18;stroke-linejoin:miter;stroke-miterlimit:4;stroke-opacity:1;stroke-dasharray:none"
       id="path2985"
       sodipodi:cx="372.85715"
       sodipodi:cy="496.64789"
       sodipodi:rx="121.42857"
       sodipodi:ry="121.42857"
       d="m 494.28572,496.64789 a 121.42857,121.42857 0 1 1 -242.85715,0 121.42857,121.42857 0 1 1 242.85715,0 z" />
  </g>
  <g
     inkscape:groupmode="layer"
     id="layer4"
     inkscape:label="Ticks"
     style="opacity:0.4">
    <path
       style="fill:#ffffff;fill-opacity:1;stroke:none"
       d="M 368.9375 369.3125 L 368.9375 408.5625 C 370.23681 408.50567 371.53043 408.46875 372.84375 408.46875 C 374.15707 408.46875 375.48194 408.50567 376.78125 408.5625 L 376.78125 369.3125 L 368.9375 369.3125 z M 343.6875 372.65625 L 336.09375 374.6875 L 346.25 412.5625 C 348.7316 411.77831 351.27264 411.09643 353.84375 410.53125 L 343.6875 372.65625 z M 312.59375 384.40625 L 305.78125 388.34375 L 325.40625 422.34375 C 327.61822 420.92811 329.87791 419.59268 332.21875 418.375 L 312.59375 384.40625 z M 285.59375 403.84375 L 280.0625 409.40625 L 307.78125 437.125 C 309.55036 435.19128 311.41047 433.36333 313.34375 431.59375 L 285.59375 403.84375 z M 264.5625 429.59375 L 260.625 436.375 L 294.59375 456 C 295.80875 453.66573 297.11936 451.39357 298.53125 449.1875 L 264.5625 429.59375 z M 250.90625 459.90625 L 248.84375 467.5 L 286.75 477.65625 C 287.31649 475.07494 287.99404 472.55363 288.78125 470.0625 L 250.90625 459.90625 z M 245.53125 492.71875 L 245.53125 500.5625 L 284.75 500.5625 C 284.69342 499.26607 284.6875 497.96662 284.6875 496.65625 C 284.6875 495.33532 284.69251 494.02551 284.75 492.71875 L 245.53125 492.71875 z "
       id="rect3899" />
  </g>
  <g
     inkscape:groupmode="layer"
     id="layer3"
     inkscape:label="V"
     style="display:inline">
    <text
       xml:space="preserve"
       style="font-size:40px;font-style:normal;font-variant:normal;font-weight:bold;font-stretch:normal;line-height:125%;letter-spacing:0px;word-spacing:0px;fill:#000000;fill-opacity:1;stroke:none;font-family:Lohit Gujarati;-inkscape-font-specification:Lohit Gujarati Bold;stroke-opacity:1"
       x="351.78564"
       y="607.64258"
       id="text3755"
       sodipodi:linespacing="125%"><tspan
         sodipodi:role="line"
         id="tspan3757"
         x="351.78564"
         y="607.64258"
         style="font-size:155px;font-style:normal;font-variant:normal;font-weight:bold;font-stretch:normal;fill:#ffffff;fill-opacity:1;font-family:Lohit Gujarati;-inkscape-font-specification:Lohit Gujarati Bold;stroke:none;stroke-opacity:1">V</tspan></text>
  </g>
  <g
     inkscape:groupmode="layer"
     id="layer5"
     inkscape:label="Outer Ring"
     style="display:inline">
    <path
       d="m 494.28572,496.64789 a 121.42857,121.42857 0 1 1 -242.85715,0 121.42857,121.42857 0 1 1 242.85715,0 z"
       sodipodi:ry="121.42857"
       sodipodi:rx="121.42857"
       sodipodi:cy="496.64789"
       sodipodi:cx="372.85715"
       id="path3962"
       style="fill:none;stroke:#ffffff;stroke-width:18;stroke-linejoin:miter;stroke-miterlimit:4;stroke-opacity:1;stroke-dasharray:none;display:inline"
       sodipodi:type="arc" />
  </g>
</svg>
